{
	"asset":{
		"generator":"Khronos glTF Blender I/O v4.5.47",
		"version":"2.0"
	},
	"scene":0,
	"scenes":[
		{
			"name":"Scene",
			"nodes":[
				0
			]
		}
	],
	"nodes":[
		{
			"mesh":0,
			"name":"Plane",
			"rotation":[
				0,
				0.7071068286895752,
				0,
				0.7071068286895752
			],
			"scale":[
				1.2955951690673828,
				1.2955951690673828,
				1.2955951690673828
			],
			"translation":[
				5.3019609451293945,
				0.13703414797782898,
				6.087122917175293
			]
		}
	],
	"materials":[
		{
			"doubleSided":true,
			"name":"dino marrom",
			"pbrMetallicRoughness":{
				"baseColorFactor":[
					0.2606299817562103,
					0.05745716020464897,
					0.014119161292910576,
					1
				],
				"metallicFactor":0,
				"roughnessFactor":0.5
			}
		}
	],
	"meshes":[
		{
			"name":"Plane",
			"primitives":[
				{
					"attributes":{
						"POSITION":0,
						"NORMAL":1,
						"TEXCOORD_0":2
					},
					"indices":3,
					"material":0
				}
			]
		}
	],
	"accessors":[
		{
			"bufferView":0,
			"componentType":5126,
			"count":2016,
			"max":[
				0.6621206402778625,
				2.971550226211548,
				2.814324378967285
			],
			"min":[
				-0.6621206402778625,
				0,
				-3.1500470638275146
			],
			"type":"VEC3"
		},
		{
			"bufferView":1,
			"componentType":5126,
			"count":2016,
			"type":"VEC3"
		},
		{
			"bufferView":2,
			"componentType":5126,
			"count":2016,
			"type":"VEC2"
		},
		{
			"bufferView":3,
			"componentType":5123,
			"count":2892,
			"type":"SCALAR"
		}
	],
	"bufferViews":[
		{
			"buffer":0,
			"byteLength":24192,
			"byteOffset":0,
			"target":34962
		},
		{
			"buffer":0,
			"byteLength":24192,
			"byteOffset":24192,
			"target":34962
		},
		{
			"buffer":0,
			"byteLength":16128,
			"byteOffset":48384,
			"target":34962
		},
		{
			"buffer":0,
			"byteLength":5784,
			"byteOffset":64512,
			"target":34963
		}
	],
	"buffers":[
		{
			"byteLength":70296,
			"uri":"dinossauro.bin"
		}
	]
}
